<svg width="43" height="43" viewBox="0 0 43 43" fill="none" xmlns="http://www.w3.org/2000/svg">
<path d="M39.5599 5.13225L20.0895 24.7597L13.2095 17.2693C12.4527 16.4371 11.1455 16.3677 10.2511 17.1306C9.42555 17.8935 9.35675 19.2113 10.1135 20.1129L18.4383 29.1984C18.7823 29.6145 19.3327 29.8919 19.8831 29.8919H19.9519C20.5023 29.8919 21.0527 29.6839 21.3967 29.2677L42.3807 8.11451C43.2063 7.28225 43.2063 5.96451 42.3807 5.13225C41.6927 4.29999 40.3855 4.29999 39.5599 5.13225Z" fill="#ECC800"/>
<path d="M8.944 43H33.712C38.6656 43 42.656 38.9774 42.656 33.9839V20.1823C42.656 19.0032 41.7616 18.1016 40.592 18.1016C39.4224 18.1016 38.528 19.0032 38.528 20.1823V33.9839C38.528 36.6887 36.3952 38.8387 33.712 38.8387H8.944C6.2608 38.8387 4.128 36.6887 4.128 33.9839V9.01613C4.128 6.31129 6.2608 4.16129 8.944 4.16129H31.1664C32.336 4.16129 33.2304 3.25968 33.2304 2.08065C33.2304 0.901613 32.336 0 31.1664 0H8.944C3.9904 0 5.24902e-07 4.02258 5.24902e-07 9.01613V33.9839C5.24902e-07 38.9774 3.9904 43 8.944 43Z" fill="#ECC800"/>
</svg>
